<svg xmlns="http://www.w3.org/2000/svg" viewBox="0 0 740 480">
  <path fill="#b22234" d="M0 0h740v480H0z"/>
  <path d="M0 0h740v37.7H0z" fill="#fff"/>
  <path d="M0 75.4h740V113H0z" fill="#fff"/>
  <path d="M0 150.8h740v37.7H0z" fill="#fff"/>
  <path d="M0 226.2h740v37.7H0z" fill="#fff"/>
  <path d="M0 301.5h740v37.7H0z" fill="#fff"/>
  <path d="M0 377h740v37.7H0z" fill="#fff"/>
  <path d="M0 452.3h740V490H0z" fill="#fff"/>
  <path d="M0 0h296v264H0z" fill="#3c3b6e"/>
  <path d="M37 0v28.9m49.3-28.9v28.9m49.3-28.9v28.9m49.3-28.9v28.9m49.3-28.9v28.9m49.3-28.9v28.9m-295.5 37.8v28.9m49.3-28.9v28.9m49.3-28.9v28.9m49.3-28.9v28.9m49.3-28.9v28.9m49.3-28.9v28.9m-295.5 37.8v28.9m49.3-28.9v28.9m49.3-28.9v28.9m49.3-28.9v28.9m49.3-28.9v28.9m49.3-28.9v28.9m-295.5 37.8v28.9m49.3-28.9v28.9m49.3-28.9v28.9m49.3-28.9v28.9m49.3-28.9v28.9m49.3-28.9v28.9m-295.5 37.8v28.9m49.3-28.9v28.9m49.3-28.9v28.9m49.3-28.9v28.9m49.3-28.9v28.9m49.3-28.9v28.9" stroke="#fff" stroke-width="3.8" fill="none"/>
  <circle cx="18.5" cy="14.4" r="3.8" fill="#fff"/>
  <circle cx="67.8" cy="14.4" r="3.8" fill="#fff"/>
  <circle cx="117.1" cy="14.4" r="3.8" fill="#fff"/>
  <circle cx="166.4" cy="14.4" r="3.8" fill="#fff"/>
  <circle cx="215.7" cy="14.4" r="3.8" fill="#fff"/>
  <circle cx="265" cy="14.4" r="3.8" fill="#fff"/>
  <circle cx="43.1" cy="28.9" r="3.8" fill="#fff"/>
  <circle cx="92.4" cy="28.9" r="3.8" fill="#fff"/>
  <circle cx="141.7" cy="28.9" r="3.8" fill="#fff"/>
  <circle cx="191" cy="28.9" r="3.8" fill="#fff"/>
  <circle cx="240.3" cy="28.9" r="3.8" fill="#fff"/>
  <circle cx="18.5" cy="43.3" r="3.8" fill="#fff"/>
  <circle cx="67.8" cy="43.3" r="3.8" fill="#fff"/>
  <circle cx="117.1" cy="43.3" r="3.8" fill="#fff"/>
  <circle cx="166.4" cy="43.3" r="3.8" fill="#fff"/>
  <circle cx="215.7" cy="43.3" r="3.8" fill="#fff"/>
  <circle cx="265" cy="43.3" r="3.8" fill="#fff"/>
  <circle cx="43.1" cy="57.8" r="3.8" fill="#fff"/>
  <circle cx="92.4" cy="57.8" r="3.8" fill="#fff"/>
  <circle cx="141.7" cy="57.8" r="3.8" fill="#fff"/>
  <circle cx="191" cy="57.8" r="3.8" fill="#fff"/>
  <circle cx="240.3" cy="57.8" r="3.8" fill="#fff"/>
  <circle cx="18.5" cy="72.2" r="3.8" fill="#fff"/>
  <circle cx="67.8" cy="72.2" r="3.8" fill="#fff"/>
  <circle cx="117.1" cy="72.2" r="3.8" fill="#fff"/>
  <circle cx="166.4" cy="72.2" r="3.8" fill="#fff"/>
  <circle cx="215.7" cy="72.2" r="3.8" fill="#fff"/>
  <circle cx="265" cy="72.2" r="3.8" fill="#fff"/>
  <circle cx="43.1" cy="86.7" r="3.8" fill="#fff"/>
  <circle cx="92.4" cy="86.7" r="3.8" fill="#fff"/>
  <circle cx="141.7" cy="86.7" r="3.8" fill="#fff"/>
  <circle cx="191" cy="86.7" r="3.8" fill="#fff"/>
  <circle cx="240.3" cy="86.7" r="3.8" fill="#fff"/>
</svg>



